<svg width="494" height="278" xmlns="http://www.w3.org/2000/svg" xmlns:xlink="http://www.w3.org/1999/xlink" xml:space="preserve" overflow="hidden"><defs><clipPath id="clip0"><rect x="830" y="334" width="494" height="278"/></clipPath></defs><g clip-path="url(#clip0)" transform="translate(-830 -334)"><path d="M241.357 264.084C220.52 262.734 198.642 255.248 181.355 243.556 163.104 231.209 148.634 214.539 139.258 195.092 134.126 184.442 130.923 174.41 128.724 162.062 127.064 152.801 126.717 138.833 127.875 128.106 129.418 113.675 134.704 96.3884 141.843 82.2658L143.888 78.2914 139.142 64.1303C136.518 56.3359 131.772 42.1361 128.569 32.5668 125.328 22.9588 122.704 14.8557 122.704 14.4698 122.704 14.1226 123.206 13.6209 123.823 13.3894 124.826 13.0036 124.942 12.8492 124.749 11.653 124.518 10.4183 124.556 10.3411 125.444 10.6112 127.026 11.1128 161.56 22.1099 176.146 26.8174 183.786 29.2484 190.346 31.2548 190.732 31.2548 191.079 31.2548 192.738 30.5989 194.397 29.75 208.52 22.6501 223.569 18.4056 239.582 16.9393 245.91 16.3991 258.798 16.6692 265.01 17.5567 301.821 22.6501 333.153 42.985 352.446 74.2013 358.736 84.3881 364.717 98.5878 367.92 110.935 370.968 122.781 372.434 137.483 371.624 148.827 369.54 178.963 357.887 205.665 337.629 226.655 317.989 246.99 292.985 259.569 264.508 263.389 260.341 263.93 245.91 264.393 241.357 264.084ZM256.444 237.691C270.219 236.572 281.525 233.524 293.448 227.697 309.616 219.748 323.16 207.864 333.192 192.738 340.909 181.124 345.655 168.622 347.507 154.962 348.395 148.48 348.395 135.36 347.507 128.724 341.218 82.0729 302.709 46.1105 255.981 43.178 239.505 42.1747 224.186 44.8758 209.214 51.4354 205.086 53.249 198.256 56.9533 196.134 58.4967 195.478 58.9983 194.629 59.4228 194.243 59.4228 193.896 59.4228 185.677 56.9147 176.03 53.8278 166.384 50.7409 158.435 48.2328 158.396 48.3099 158.319 48.3871 160.789 55.9114 163.837 65.0178 166.885 74.1627 169.393 82.0729 169.393 82.6903 169.393 83.3076 168.699 84.7353 167.696 86.163 151.567 109.276 146.319 141.187 154.152 168.236 155.888 174.101 157.316 177.69 160.133 183.285 167.85 198.372 179.619 211.53 194.089 221.176 212.34 233.369 235.144 239.389 256.444 237.691Z" fill="#FFFFFF" transform="matrix(1 0 0 -1.00065 830.048 612)"/><path d="M205.394 202.037C204.507 201.767 203.234 201.15 202.5 200.725 200.533 199.491 194.822 193.394 193.047 190.616 187.375 181.78 186.101 170.011 189.497 158.512 192.082 149.83 195.246 143.193 201.034 134.241 208.366 122.974 213.112 116.878 220.713 109.045 232.135 97.2758 241.743 90.6776 256.483 84.5424 267.364 79.9892 275.39 77.4039 279.904 76.9409 283.03 76.6322 289.86 77.7126 293.873 79.1789 299.429 81.1854 305.796 85.6614 308.265 89.2885 310.735 92.9928 313.281 101.366 313.59 106.922L313.822 110.588 312.626 111.977C311.777 112.903 308.304 114.987 301.281 118.768 284.612 127.72 282.49 128.569 279.866 127.18 279.21 126.871 276.74 124.363 274.425 121.662 267.557 113.675 266.129 112.286 264.972 112.286 263.505 112.286 253.897 117.186 249.421 120.196 244.212 123.746 240.817 126.601 236.533 131.039 231.44 136.325 225.922 143.888 222.835 149.792L222.141 151.181 224.919 154.229C228.585 158.126 230.09 160.48 231.556 164.57 233.061 168.738 232.984 170.011 230.784 175.76 228.816 180.892 227.234 185.137 224.495 192.507 222.257 198.565 220.597 201.034 218.282 201.767 216.083 202.423 207.208 202.616 205.394 202.037Z" fill="#FFFFFF" transform="matrix(1 0 0 -1.00065 830.048 612)"/></g></svg>